<svg xmlns="http://www.w3.org/2000/svg" width="50" height="50" viewBox="0 0 50 50" version="1.1"><path d="M 21.434 15.250 C 14.938 22.385, 12.558 25.276, 13.729 24.608 C 15.385 23.664, 19.232 25.815, 18.373 27.205 C 17.962 27.870, 18.149 28.026, 18.844 27.597 C 19.478 27.205, 20.979 27.572, 22.180 28.414 C 23.778 29.533, 24.714 29.653, 25.669 28.860 C 26.387 28.264, 27.768 28.073, 28.737 28.435 C 29.707 28.798, 28.831 27.412, 26.791 25.355 C 23.087 21.620, 23.079 21.618, 20.791 23.517 C 19.531 24.562, 19.944 23.889, 21.708 22.020 L 24.916 18.623 29.037 23.304 C 32.384 27.107, 33.494 27.806, 34.947 27.028 C 35.932 26.501, 37.021 26.355, 37.369 26.702 C 37.716 27.049, 38 26.995, 38 26.582 C 38 25.607, 25.916 12, 25.051 12 C 24.689 12, 23.061 13.462, 21.434 15.250" stroke="none" fill="#08cdda" fill-rule="evenodd"/><path d="M 9.458 29.250 L 4.731 34.500 10.541 34.805 C 15.839 35.083, 16.611 34.850, 19.300 32.161 C 22.461 29, 22.183 26.490, 18.791 27.566 C 17.334 28.029, 16.965 27.865, 17.503 26.995 C 18.181 25.897, 16.537 24.055, 14.843 24.015 C 14.481 24.007, 12.058 26.362, 9.458 29.250 M 35.250 26.662 C 33.251 27.469, 33.789 29.423, 36.805 32.313 C 39.469 34.866, 45 36.083, 45 34.116 C 45 33.328, 37.357 25.884, 36.747 26.079 C 36.611 26.122, 35.938 26.385, 35.250 26.662 M 24.188 30.960 C 22.985 32.587, 22 34.162, 22 34.460 C 22 34.757, 24.925 35, 28.500 35 C 32.075 35, 35 34.590, 35 34.089 C 35 32.835, 29.132 28, 27.611 28 C 26.932 28, 25.391 29.332, 24.188 30.960" stroke="none" fill="#144275" fill-rule="evenodd"/></svg>